<svg width="15" height="16" viewBox="0 0 15 16" fill="none" xmlns="http://www.w3.org/2000/svg">
<path d="M7.26953 11.5322L3.76953 13.0322C3.76953 12.7288 3.9503 12.4547 4.2291 12.3352L7.26953 11.0322L11.2695 13.0322L7.76953 11.5322H7.26953Z" fill="#2A3362"/>
<path d="M3.2832 13.4472V3.46521C3.2832 3.22504 3.37327 3.01489 3.55339 2.83477C3.73352 2.65464 3.94367 2.56458 4.18384 2.56458H10.7885C11.0286 2.56458 11.2388 2.65464 11.4189 2.83477C11.599 3.01489 11.6891 3.22504 11.6891 3.46521V13.4472L7.48616 11.646L3.2832 13.4472ZM4.18384 12.0813L7.48616 10.6853L10.7885 12.0813V3.46521H4.18384V12.0813Z" fill="#2A3362"/>
</svg>
