<svg width="15" height="16" viewBox="0 0 15 16" fill="none" xmlns="http://www.w3.org/2000/svg">
<path d="M10.7171 12.2486L10.7171 12.2486C10.6044 12.3295 10.509 12.3558 10.422 12.3558H4.42017H2.31128V6.43486H4.42017H4.63247L4.77991 6.28211L8.22241 2.71579L8.35643 2.82231C8.36146 2.84391 8.36744 2.88366 8.36744 2.94748V3.02994L7.77015 5.83057L7.64127 6.43486H8.25915H12.3009C12.3759 6.43486 12.4403 6.45698 12.5151 6.53173C12.5898 6.60649 12.6119 6.67091 12.6119 6.74591V7.85218C12.6119 7.93388 12.619 8.01513 12.6323 8.09562L10.9502 11.9672L10.9501 11.9672L10.9474 11.9737C10.9069 12.0707 10.8368 12.1626 10.7171 12.2486Z" stroke="#2A3362"/>
</svg>
