<?xml version="1.0" encoding="UTF-8"?>
<svg xmlns="http://www.w3.org/2000/svg" style="display: none;">
<symbol id="external-link-icon" viewBox="0 0 16 16">
<path d="M11.3334 1.33334H14.6667V4.66668" stroke="currentColor" stroke-linecap="round" stroke-linejoin="round"/>
<path d="M14 8.66667V12.6667C14 13.4031 13.4031 14 12.6667 14H3.33333C2.59695 14 2 13.4031 2 12.6667V3.33333C2 2.59695 2.59695 2 3.33333 2H7.33333" stroke="currentColor" stroke-linecap="round" stroke-linejoin="round"/>
<path d="M8.66663 7.33332L14.3333 1.66666" stroke="currentColor" stroke-linecap="round" stroke-linejoin="round"/>
</symbol>

<symbol id="search-icon" viewBox="0 0 18 18">
<g clip-path="url(#clip0_645_710)">
<path d="M12.75 12.75L16.5 16.5L12.75 12.75ZM14.625 8.0625C14.625 11.6869 11.6869 14.625 8.0625 14.625C4.43813 14.625 1.5 11.6869 1.5 8.0625C1.5 4.43813 4.43813 1.5 8.0625 1.5C11.6869 1.5 14.625 4.43813 14.625 8.0625Z" stroke="currentColor" stroke-width="1.5" stroke-linecap="round" stroke-linejoin="round"/>
</g>
<defs>
<clipPath id="clip0_645_710">
<rect width="18" height="18"/>
</clipPath>
</defs>
</symbol>

<symbol id="plus-icon" viewBox="0 0 14 14">
<path d="M1 7H13M7 1V13V1Z" stroke="currentColor" stroke-linecap="round" stroke-linejoin="round"/>
</symbol>

<symbol id="caret-down-icon" viewBox="0 0 14 17">
<path d="M1 8L5 12L9 8" stroke="currentColor" stroke-width="1.5" stroke-linecap="round" stroke-linejoin="round"/>
</symbol>

<symbol id="user-icon" viewBox="0 0 16 16">
<path d="M7.99992 7.33333C9.47268 7.33333 10.6666 6.13943 10.6666 4.66667C10.6666 3.19391 9.47268 2 7.99992 2C6.52716 2 5.33325 3.19391 5.33325 4.66667C5.33325 6.13943 6.52716 7.33333 7.99992 7.33333Z" stroke="currentColor" stroke-linecap="round" stroke-linejoin="round"/>
<path d="M2.66675 14V11.3333C2.66675 10.5969 3.2637 10 4.00008 10H12.0001C12.7365 10 13.3334 10.5969 13.3334 11.3333V14" stroke="currentColor" stroke-linecap="round" stroke-linejoin="round"/>
</symbol>

<symbol id="unliked-icon" viewBox="0 0 15 16">
<path d="M10.7171 12.2486L10.7171 12.2486C10.6044 12.3295 10.509 12.3558 10.422 12.3558H4.42017H2.31128V6.43486H4.42017H4.63247L4.77991 6.28211L8.22241 2.71579L8.35643 2.82231C8.36146 2.84391 8.36744 2.88366 8.36744 2.94748V3.02994L7.77015 5.83057L7.64127 6.43486H8.25915H12.3009C12.3759 6.43486 12.4403 6.45698 12.5151 6.53173C12.5898 6.60649 12.6119 6.67091 12.6119 6.74591V7.85218C12.6119 7.93388 12.619 8.01513 12.6323 8.09562L10.9502 11.9672L10.9501 11.9672L10.9474 11.9737C10.9069 12.0707 10.8368 12.1626 10.7171 12.2486Z" stroke="currentColor"/>
</symbol>

<symbol id="share-icon" viewBox="0 0 16 16">
<path d="M3.94848 14.6481C3.70832 14.6481 3.49817 14.558 3.31804 14.3779C3.13791 14.1977 3.04785 13.9876 3.04785 13.7474V6.10705C3.04785 5.86689 3.13791 5.65674 3.31804 5.47661C3.49817 5.29648 3.70832 5.20642 3.94848 5.20642H6.48527V6.10705H3.94848V13.7474H11.754V6.10705H9.18717V5.20642H11.754C11.9941 5.20642 12.2043 5.29648 12.3844 5.47661C12.5645 5.65674 12.6546 5.86689 12.6546 6.10705V13.7474C12.6546 13.9876 12.5645 14.1977 12.3844 14.3779C12.2043 14.558 11.9941 14.6481 11.754 14.6481H3.94848Z"  stroke="currentColor"/>
<path d="M7.38582 3.18001V10.0398H8.28645V3.18001L9.60738 4.50093L10.2528 3.85548L7.83613 1.43878L5.41943 3.85548L6.06489 4.50093L7.38582 3.18001Z" stroke="currentColor"/>
</symbol>

<symbol id="bookmark-icon" viewBox="0 0 15 15">
<path d="M7.00923 10.5763L3.5 12.1148V3C3.5 2.72386 3.72386 2.5 4 2.5H10.41C10.6861 2.5 10.91 2.72386 10.91 3V12.1141L7.41117 10.5764L7.21024 10.4881L7.00923 10.5763Z" stroke="currentColor"/>
</symbol>

</svg>
