<?xml version="1.0" encoding="UTF-8"?>
<svg xmlns="http://www.w3.org/2000/svg" style="display: none;">
<symbol id="external-link-icon" viewBox="0 0 16 16">
<path d="M11.3334 1.33334H14.6667V4.66668" stroke="currentColor" stroke-linecap="round" stroke-linejoin="round"/>
<path d="M14 8.66667V12.6667C14 13.4031 13.4031 14 12.6667 14H3.33333C2.59695 14 2 13.4031 2 12.6667V3.33333C2 2.59695 2.59695 2 3.33333 2H7.33333" stroke="currentColor" stroke-linecap="round" stroke-linejoin="round"/>
<path d="M8.66663 7.33332L14.3333 1.66666" stroke="currentColor" stroke-linecap="round" stroke-linejoin="round"/>
</symbol>

<symbol id="search-icon" viewBox="0 0 18 18" fill="none">
<g clip-path="url(#clip0_920_677)">
<path d="M12.75 12.75L16.5 16.5L12.75 12.75ZM14.625 8.0625C14.625 11.6869 11.6869 14.625 8.0625 14.625C4.43813 14.625 1.5 11.6869 1.5 8.0625C1.5 4.43813 4.43813 1.5 8.0625 1.5C11.6869 1.5 14.625 4.43813 14.625 8.0625Z" stroke="currentColor" stroke-width="1.5" stroke-linecap="round" stroke-linejoin="round"/>
</g>
<defs>
<clipPath id="clip0_920_677">
<rect width="18" height="18" fill="white"/>
</clipPath>
</defs>
</symbol>

<symbol id="plus-icon" viewBox="0 0 14 14">
<path d="M1 7H13M7 1V13V1Z" stroke="currentColor" stroke-linecap="round" stroke-linejoin="round"/>
</symbol>

<symbol id="caret-down-icon" viewBox="0 0 16 16" fill="none">
<path d="M2.66666 5.33331L7.99999 10.6666L13.3333 5.33331" stroke="currentColor" stroke-linecap="round" stroke-linejoin="round"/>
</symbol>

<symbol id="user-icon" viewBox="0 0 16 16">
<path d="M7.99992 7.33333C9.47268 7.33333 10.6666 6.13943 10.6666 4.66667C10.6666 3.19391 9.47268 2 7.99992 2C6.52716 2 5.33325 3.19391 5.33325 4.66667C5.33325 6.13943 6.52716 7.33333 7.99992 7.33333Z" stroke="currentColor" stroke-linecap="round" stroke-linejoin="round"/>
<path d="M2.66675 14V11.3333C2.66675 10.5969 3.2637 10 4.00008 10H12.0001C12.7365 10 13.3334 10.5969 13.3334 11.3333V14" stroke="currentColor" stroke-linecap="round" stroke-linejoin="round"/>
</symbol>

<symbol id="unliked-icon" viewBox="0 0 15 16">
<path d="M10.7171 12.2486L10.7171 12.2486C10.6044 12.3295 10.509 12.3558 10.422 12.3558H4.42017H2.31128V6.43486H4.42017H4.63247L4.77991 6.28211L8.22241 2.71579L8.35643 2.82231C8.36146 2.84391 8.36744 2.88366 8.36744 2.94748V3.02994L7.77015 5.83057L7.64127 6.43486H8.25915H12.3009C12.3759 6.43486 12.4403 6.45698 12.5151 6.53173C12.5898 6.60649 12.6119 6.67091 12.6119 6.74591V7.85218C12.6119 7.93388 12.619 8.01513 12.6323 8.09562L10.9502 11.9672L10.9501 11.9672L10.9474 11.9737C10.9069 12.0707 10.8368 12.1626 10.7171 12.2486Z" stroke="currentColor"/>
</symbol>

<symbol id="link-icon" viewBox="0 0 16 16">
<path d="M3.94848 14.6481C3.70832 14.6481 3.49817 14.558 3.31804 14.3779C3.13791 14.1977 3.04785 13.9876 3.04785 13.7474V6.10705C3.04785 5.86689 3.13791 5.65674 3.31804 5.47661C3.49817 5.29648 3.70832 5.20642 3.94848 5.20642H6.48527V6.10705H3.94848V13.7474H11.754V6.10705H9.18717V5.20642H11.754C11.9941 5.20642 12.2043 5.29648 12.3844 5.47661C12.5645 5.65674 12.6546 5.86689 12.6546 6.10705V13.7474C12.6546 13.9876 12.5645 14.1977 12.3844 14.3779C12.2043 14.558 11.9941 14.6481 11.754 14.6481H3.94848Z"/>
<path d="M7.38582 3.18001V10.0398H8.28645V3.18001L9.60738 4.50093L10.2528 3.85548L7.83613 1.43878L5.41943 3.85548L6.06489 4.50093L7.38582 3.18001Z"/>
</symbol>

<symbol id="bookmark-icon" viewBox="0 0 15 15">
<path d="M7.00923 10.5763L3.5 12.1148V3C3.5 2.72386 3.72386 2.5 4 2.5H10.41C10.6861 2.5 10.91 2.72386 10.91 3V12.1141L7.41117 10.5764L7.21024 10.4881L7.00923 10.5763Z" stroke="currentColor"/>
</symbol>

<symbol id="cog-icon" viewBox="0 0 16 16" fill="none">
<g clip-path="url(#clip0_398_5647)">
<path d="M6.71738 2.10874C6.75731 1.66959 7.12551 1.33333 7.56645 1.33333H8.43351C8.87445 1.33333 9.24265 1.66959 9.28258 2.10874C9.31538 2.46928 9.57485 2.76362 9.91385 2.89067C10.001 2.92333 10.0871 2.95816 10.1721 2.99509C10.5075 3.14086 10.902 3.11292 11.183 2.87879C11.5302 2.58947 12.0407 2.61263 12.3602 2.93219L12.9722 3.54415C13.2769 3.84884 13.299 4.33559 13.0231 4.66661C12.7934 4.94233 12.772 5.33163 12.9264 5.65561C12.9933 5.79591 13.0544 5.93951 13.1093 6.08611C13.2364 6.42511 13.5307 6.6846 13.8912 6.7174C14.3304 6.75733 14.6666 7.12553 14.6666 7.56647V8.43353C14.6666 8.87446 14.3304 9.24266 13.8912 9.2826C13.5307 9.3154 13.2364 9.57486 13.1093 9.91386C13.06 10.0455 13.0057 10.1747 12.9468 10.3012C12.8035 10.6087 12.8267 10.9758 13.0438 11.2364C13.308 11.5533 13.2868 12.0194 12.9951 12.3111L12.3111 12.9951C12.0194 13.2869 11.5533 13.308 11.2364 13.0439C10.9758 12.8267 10.6086 12.8035 10.3012 12.9468C10.1746 13.0057 10.0454 13.06 9.91385 13.1093C9.57485 13.2364 9.31538 13.5307 9.28258 13.8913C9.24265 14.3304 8.87445 14.6667 8.43351 14.6667H7.56645C7.12551 14.6667 6.75731 14.3304 6.71738 13.8913C6.68458 13.5307 6.42509 13.2364 6.08609 13.1093C5.93949 13.0544 5.79589 12.9933 5.6556 12.9265C5.33162 12.772 4.94231 12.7934 4.66659 13.0231C4.33557 13.299 3.84881 13.2769 3.54413 12.9723L2.93217 12.3603C2.6126 12.0407 2.58945 11.5302 2.87877 11.183C3.11291 10.9021 3.14084 10.5075 2.99507 10.1721C2.95814 10.0871 2.92331 10.0011 2.89065 9.91386C2.76361 9.57486 2.46926 9.3154 2.10872 9.2826C1.66957 9.24266 1.33331 8.87446 1.33331 8.43353V7.56647C1.33331 7.12553 1.66957 6.75733 2.10872 6.7174C2.46927 6.6846 2.76361 6.42512 2.89065 6.08611C2.92905 5.98367 2.97043 5.88268 3.01471 5.78326C3.17138 5.43144 3.14534 5.01505 2.89879 4.71918C2.59813 4.35839 2.62219 3.82786 2.95428 3.49577L3.49574 2.95431C3.82783 2.62221 4.35836 2.59815 4.71915 2.89881C5.01502 3.14537 5.43141 3.1714 5.78323 3.01473C5.88265 2.97045 5.98364 2.92907 6.08609 2.89067C6.42509 2.76363 6.68458 2.46929 6.71738 2.10874Z" stroke="currentColor" stroke-linecap="round" stroke-linejoin="round"/>
<path d="M10 8C10 9.1046 9.1046 10 8 10C6.8954 10 6 9.1046 6 8C6 6.8954 6.8954 6 8 6C9.1046 6 10 6.8954 10 8Z" stroke="currentColor" stroke-linecap="round" stroke-linejoin="round"/>
</g>
<defs>
<clipPath id="clip0_398_5647">
<rect width="16" height="16" fill="white"/>
</clipPath>
</defs>
</symbol>

<symbol id="times-icon" viewBox="0 0 12 12" fill="none">
<path fill-rule="evenodd" clip-rule="evenodd" d="M5.15148 6L1.37575 2.22426C1.14143 1.98995 1.14143 1.61005 1.37575 1.37573C1.61006 1.14142 1.98996 1.14142 2.22428 1.37573L6.00001 5.15147L9.77575 1.37573C10.0101 1.14142 10.39 1.14142 10.6243 1.37573C10.8586 1.61005 10.8586 1.98995 10.6243 2.22426L6.84854 6L10.6243 9.77573C10.8586 10.01 10.8586 10.3899 10.6243 10.6243C10.39 10.8586 10.0101 10.8586 9.77575 10.6243L6.00001 6.84853L2.22428 10.6243C1.98996 10.8586 1.61006 10.8586 1.37575 10.6243C1.14143 10.3899 1.14143 10.01 1.37575 9.77573L5.15148 6Z" fill="currentColor"/>
</symbol>

<symbol id="share-icon" viewBox="0 0 16 15" fill="none">
<path d="M6.86937 5.53767C7.25556 5.45003 7.65748 5.40376 8.07021 5.40376C11.0546 5.40376 13.474 7.82313 13.474 10.8075C13.474 11.3284 13.4003 11.832 13.2627 12.3085C12.6123 10.0544 10.5338 8.40583 8.07021 8.40583C7.65748 8.40583 7.25556 8.45213 6.86937 8.53973M6.86937 5.53265V2.95943L2.62378 7.205L6.86937 11.4506V8.54945V5.53265Z" stroke="currentColor" stroke-linecap="round" stroke-linejoin="round"/>
</symbol>

</svg>
