<?xml version="1.0" encoding="UTF-8"?>
<svg xmlns="http://www.w3.org/2000/svg" style="display: none;">
<symbol id="external-link-icon" width="16" height="16" viewBox="0 0 16 16" fill="none">
<path d="M11.3334 1.33334H14.6667V4.66668" stroke="#576AE6" stroke-linecap="round" stroke-linejoin="round"/>
<path d="M14 8.66667V12.6667C14 13.4031 13.4031 14 12.6667 14H3.33333C2.59695 14 2 13.4031 2 12.6667V3.33333C2 2.59695 2.59695 2 3.33333 2H7.33333" stroke="#576AE6" stroke-linecap="round" stroke-linejoin="round"/>
<path d="M8.66663 7.33332L14.3333 1.66666" stroke="#576AE6" stroke-linecap="round" stroke-linejoin="round"/>
</symbol>

<symbol id="search-icon" width="18" height="18" viewBox="0 0 18 18" fill="none">
<g clip-path="url(#clip0_645_710)">
<path d="M12.75 12.75L16.5 16.5L12.75 12.75ZM14.625 8.0625C14.625 11.6869 11.6869 14.625 8.0625 14.625C4.43813 14.625 1.5 11.6869 1.5 8.0625C1.5 4.43813 4.43813 1.5 8.0625 1.5C11.6869 1.5 14.625 4.43813 14.625 8.0625Z" stroke="#828282" stroke-width="1.5" stroke-linecap="round" stroke-linejoin="round"/>
</g>
<defs>
<clipPath id="clip0_645_710">
<rect width="18" height="18" fill="white"/>
</clipPath>
</defs>
</symbol>

<symbol id="plus-icon" width="14" height="14" viewBox="0 0 14 14" fill="none">
<path d="M1 7H13M7 1V13V1Z" stroke="white" stroke-linecap="round" stroke-linejoin="round"/>
</symbol>

<symbol id="caret-down-icon" width="14" height="17" viewBox="0 0 14 17" fill="none">
<path d="M1 8L5 12L9 8" stroke="#2A3362" stroke-width="1.5" stroke-linecap="round" stroke-linejoin="round"/>
</symbol>

</svg>
