<svg width="16" height="16" viewBox="0 0 16 16" fill="none" xmlns="http://www.w3.org/2000/svg">
<path d="M3.94848 14.6481C3.70832 14.6481 3.49817 14.558 3.31804 14.3779C3.13791 14.1977 3.04785 13.9876 3.04785 13.7474V6.10705C3.04785 5.86689 3.13791 5.65674 3.31804 5.47661C3.49817 5.29648 3.70832 5.20642 3.94848 5.20642H6.48527V6.10705H3.94848V13.7474H11.754V6.10705H9.18717V5.20642H11.754C11.9941 5.20642 12.2043 5.29648 12.3844 5.47661C12.5645 5.65674 12.6546 5.86689 12.6546 6.10705V13.7474C12.6546 13.9876 12.5645 14.1977 12.3844 14.3779C12.2043 14.558 11.9941 14.6481 11.754 14.6481H3.94848Z" fill="#2A3362"/>
<path d="M7.38582 3.18001V10.0398H8.28645V3.18001L9.60738 4.50093L10.2528 3.85548L7.83613 1.43878L5.41943 3.85548L6.06489 4.50093L7.38582 3.18001Z" fill="#2A3362"/>
</svg>
