<svg width="16" height="16" viewBox="0 0 16 16" fill="none" xmlns="http://www.w3.org/2000/svg">
<path d="M10.45 11.2167L11.2 10.4667L8.55001 7.79999V4.44999H7.55001V8.19999L10.45 11.2167ZM8.00001 14.6667C7.0889 14.6667 6.22779 14.4917 5.41668 14.1417C4.60557 13.7917 3.89723 13.3139 3.29168 12.7083C2.68612 12.1028 2.20834 11.3944 1.85834 10.5833C1.50834 9.77222 1.33334 8.91111 1.33334 7.99999C1.33334 7.08888 1.50834 6.22777 1.85834 5.41666C2.20834 4.60555 2.68612 3.89722 3.29168 3.29166C3.89723 2.68611 4.60557 2.20833 5.41668 1.85833C6.22779 1.50833 7.0889 1.33333 8.00001 1.33333C8.91112 1.33333 9.77223 1.50833 10.5833 1.85833C11.3945 2.20833 12.1028 2.68611 12.7083 3.29166C13.3139 3.89722 13.7917 4.60555 14.1417 5.41666C14.4917 6.22777 14.6667 7.08888 14.6667 7.99999C14.6667 8.91111 14.4917 9.77222 14.1417 10.5833C13.7917 11.3944 13.3139 12.1028 12.7083 12.7083C12.1028 13.3139 11.3945 13.7917 10.5833 14.1417C9.77223 14.4917 8.91112 14.6667 8.00001 14.6667ZM8.00001 13.6667C9.55556 13.6667 10.8889 13.1111 12 12C13.1111 10.8889 13.6667 9.55555 13.6667 7.99999C13.6667 6.44444 13.1111 5.11111 12 3.99999C10.8889 2.88888 9.55556 2.33333 8.00001 2.33333C6.44445 2.33333 5.11112 2.88888 4.00001 3.99999C2.8889 5.11111 2.33334 6.44444 2.33334 7.99999C2.33334 9.55555 2.8889 10.8889 4.00001 12C5.11112 13.1111 6.44445 13.6667 8.00001 13.6667Z" fill="#828282"/>
</svg>
